<svg id="Layer_1" data-name="Layer 1" xmlns="http://www.w3.org/2000/svg" viewBox="0 0 256 256"><defs><style>.cls-1{fill:#edeff3;}</style></defs><path class="cls-1" d="M131.07,119.26l7.05,6.95c.55-2.54,1-4.7,1.28-6.53,1.23-7.37.68-9.38-.16-9.7-1.3-.51-4,2.72-5,3.89A18.52,18.52,0,0,0,131.07,119.26Z"/><path class="cls-1" d="M6.15,128.14c.14-6.77.5-18,6.64-30.75C21.56,79.23,36.38,70,42.86,66.54a75.71,75.71,0,0,0-16,26.56c-5.68,16.35-4,30.17-3.13,37.09,5.6,42.75,41,67.84,43.53,69.62,29.55,20.31,60.34,18.37,69.27,17.68a109.92,109.92,0,0,0,29.4-6.47,107.43,107.43,0,0,1-34.48,15.76h0s-15,3.46-28.84,3.29c-7.89-.1-44.11-3.77-71.06-34.28C28.37,192.21,5.38,165.4,6.15,128.14Z"/><path class="cls-1" d="M81.48,201.13c-6.63-3.64-43.6-24-50.64-64.62-4.59-26.51,5.95-47.83,7.58-51C41.8,78.89,47.1,68.23,59,59.93c10.2-7.1,20.25-9.08,25.89-10.14a76.76,76.76,0,0,1,29.63.34,73.34,73.34,0,0,1,20.46,9,85.77,85.77,0,0,1,16.28,13.91c.67.76,1.31,1.54,1.31,1.54,1.42,1.75,2.14,3,6.94,8.78,4.4,5.35,6.64,8.06,9.09,10.32a54.36,54.36,0,0,0,12.68,8.71c-11.67-1.59-18.6-5.46-22-7.73a88.54,88.54,0,0,1-9.89-7.81s-3.54-3.5-6.56-6.12A66.26,66.26,0,0,0,126.7,70.65a59.26,59.26,0,0,0-36.52-2.78,57.48,57.48,0,0,0-23.4,12.29c-18.29,16.08-24,43.34-18.26,65.41,3,11.74,9.53,21.05,16,28.41a76.84,76.84,0,0,1-5.82-11.89c-2.09-5.44-14.68-38.18,4.51-64.1,9.25-12.48,21.87-18,28.53-20.27h0a50.27,50.27,0,0,1,18.5-1.6,54.29,54.29,0,0,1,15.82,4.3A71.81,71.81,0,0,1,136,85.88c1.19.78,3.22,2.09,5.76,4.06,3.05,2.36,3.7,3.24,5.9,4.73A31.21,31.21,0,0,0,154.19,98a27.78,27.78,0,0,1-9.93-2.64c-2.53-1.24-3.07-2-6.83-3.89a47,47,0,0,0-7.26-2.95,44,44,0,0,0-8-1.65,52.39,52.39,0,0,0-12.88.39,51.46,51.46,0,0,0-29.92,16.47,52.59,52.59,0,0,0-8.69,20c-4.41,22.75,9.29,42,18.48,55a107.18,107.18,0,0,0,12,13.54,56.14,56.14,0,0,0,9.35,6.55,53.83,53.83,0,0,1-1.54-6.73,41,41,0,0,1-.67-7.74,37.69,37.69,0,0,1,.53-5.71c.24-2.25,1.82-15.27,13.22-23.58A32.54,32.54,0,0,1,139.44,149a14.1,14.1,0,0,0-5.18,8.27c-1,6.06,3.14,11,5.19,13.46,6.75,8,12,5.32,18.31,12.87,4.18,5,5.67,10.73,6.68,14.59A46.62,46.62,0,0,1,165.92,211l-1.58.15C157.24,212.91,118.37,221.43,81.48,201.13Z"/><path class="cls-1" d="M15.59,85.32A108.59,108.59,0,0,1,28.8,64.59a107.07,107.07,0,0,1,25.77-23A103.65,103.65,0,0,1,110,25.93s21.78.31,40.22,9c1.11.53,2.25,1.1,2.25,1.1,4.86,2.43,14.51,7.73,22.45,15.47a158.11,158.11,0,0,1,11.72,13.23c5.05,6.36,6,8.63,12.38,17.29,4.9,6.61,7.35,9.91,10.27,13a70.59,70.59,0,0,0,22.14,15.68l18.42,7.68-18.36-1.86a116,116,0,0,1-14.77-2.62c-6.05-1.48-12.51-3-19.79-6.82-1.66-.87-8-4.2-18-13.49-8.66-8.09-15.62-17.51-19.18-21.57C153.6,65,142.44,52.24,124.7,46,102.26,38,79,43.83,74.1,45.07h0S52.86,50.27,35.44,64.2A102.67,102.67,0,0,0,15.59,85.32Z"/><path class="cls-1" d="M95,169.31a53.4,53.4,0,0,0,4,9.59,47,47,0,0,1,6.37-21.22l-6.43,1.74a54.59,54.59,0,0,1,4.45-5.2,17.43,17.43,0,0,1,6.12-3.58l-8.1-.5a26.16,26.16,0,0,1,16.37-3.84,21.09,21.09,0,0,0,9.87-1c2.89-1.05,4.73-2.56,8.52-3,1-.13,1.93-.16,3.76-.48,2.16-.38,2.62-.66,4.45-.84.57-.06,5.2.05,5.95.56.35.24.74.51.82.92s0,1.17-2.88,3L145,147.54c.62,0,6-.54,8-4.51a4.36,4.36,0,0,0,.58-3.16c-.57-2-2.48-4.25-7.42-4.7a7.84,7.84,0,0,1-4.7-2.72l-12.21-11.77c0-1.6-.09-4.19,0-7.38.14-7.38.69-8.68-.12-9.3-2.65-2-14.86,7.27-23.75,18.8-5.2,6.75-11.32,14.91-12.62,27A49.32,49.32,0,0,0,95,169.31Zm32.81-34.63L133.6,130a4.84,4.84,0,0,1,2.41,2,4.49,4.49,0,0,1,.56,1.68Z"/><polygon class="cls-1" points="133.35 128.17 138.36 135.34 126.18 135.58 133.35 128.17"/></svg>