<svg id="visual" viewBox="0 0 900 600" xmlns="http://www.w3.org/2000/svg" xmlns:xlink="http://www.w3.org/1999/xlink" version="1.1"><g stroke-width="1" stroke-linejoin="bevel"><path d="M468 336L409 327L437 379Z" fill="#343b48" stroke="#343b48"></path><path d="M437 379L461 402L468 336Z" fill="#313744" stroke="#313744"></path><path d="M394 220L323 301L409 327Z" fill="#2e3440" stroke="#2e3440"></path><path d="M409 327L327 406L437 379Z" fill="#3d4555" stroke="#3d4555"></path><path d="M437 379L368 504L461 402Z" fill="#434c5d" stroke="#434c5d"></path><path d="M323 301L327 406L409 327Z" fill="#434c5d" stroke="#434c5d"></path><path d="M468 336L394 220L409 327Z" fill="#495366" stroke="#495366"></path><path d="M629 297L538 209L468 336Z" fill="#313744" stroke="#313744"></path><path d="M468 336L538 209L394 220Z" fill="#2e3440" stroke="#2e3440"></path><path d="M327 406L368 504L437 379Z" fill="#464f62" stroke="#464f62"></path><path d="M368 504L539 492L461 402Z" fill="#404859" stroke="#404859"></path><path d="M625 431L629 297L468 336Z" fill="#404859" stroke="#404859"></path><path d="M320 119L312 200L394 220Z" fill="#373e4c" stroke="#373e4c"></path><path d="M394 220L312 200L323 301Z" fill="#404859" stroke="#404859"></path><path d="M200 393L283 479L327 406Z" fill="#4c566a" stroke="#4c566a"></path><path d="M625 431L468 336L461 402Z" fill="#404859" stroke="#404859"></path><path d="M629 297L563 192L538 209Z" fill="#343b48" stroke="#343b48"></path><path d="M403 85L320 119L394 220Z" fill="#495366" stroke="#495366"></path><path d="M327 406L283 479L368 504Z" fill="#404859" stroke="#404859"></path><path d="M200 393L327 406L323 301Z" fill="#495366" stroke="#495366"></path><path d="M539 492L625 431L461 402Z" fill="#373e4c" stroke="#373e4c"></path><path d="M476 600L563 517L539 492Z" fill="#434c5d" stroke="#434c5d"></path><path d="M539 492L563 517L625 431Z" fill="#434c5d" stroke="#434c5d"></path><path d="M182 289L200 393L323 301Z" fill="#4c566a" stroke="#4c566a"></path><path d="M403 85L394 220L461 73Z" fill="#3d4555" stroke="#3d4555"></path><path d="M312 200L182 289L323 301Z" fill="#313744" stroke="#313744"></path><path d="M374 600L476 600L368 504Z" fill="#495366" stroke="#495366"></path><path d="M368 504L476 600L539 492Z" fill="#404859" stroke="#404859"></path><path d="M625 431L694 333L629 297Z" fill="#373e4c" stroke="#373e4c"></path><path d="M692 81L577 74L563 192Z" fill="#404859" stroke="#404859"></path><path d="M178 174L182 289L312 200Z" fill="#3d4555" stroke="#3d4555"></path><path d="M283 600L368 504L283 479Z" fill="#3d4555" stroke="#3d4555"></path><path d="M283 600L374 600L368 504Z" fill="#495366" stroke="#495366"></path><path d="M461 73L394 220L538 209Z" fill="#3a4251" stroke="#3a4251"></path><path d="M577 74L461 73L563 192Z" fill="#2e3440" stroke="#2e3440"></path><path d="M563 192L461 73L538 209Z" fill="#464f62" stroke="#464f62"></path><path d="M122 424L189 496L200 393Z" fill="#343b48" stroke="#343b48"></path><path d="M200 393L189 496L283 479Z" fill="#313744" stroke="#313744"></path><path d="M228 600L283 600L283 479Z" fill="#313744" stroke="#313744"></path><path d="M563 517L695 508L625 431Z" fill="#404859" stroke="#404859"></path><path d="M625 431L734 433L694 333Z" fill="#373e4c" stroke="#373e4c"></path><path d="M476 600L590 600L563 517Z" fill="#3d4555" stroke="#3d4555"></path><path d="M662 600L695 508L563 517Z" fill="#434c5d" stroke="#434c5d"></path><path d="M725 161L563 192L629 297Z" fill="#2e3440" stroke="#2e3440"></path><path d="M695 508L734 433L625 431Z" fill="#373e4c" stroke="#373e4c"></path><path d="M209 107L178 174L312 200Z" fill="#3d4555" stroke="#3d4555"></path><path d="M70 331L122 424L200 393Z" fill="#343b48" stroke="#343b48"></path><path d="M209 107L312 200L320 119Z" fill="#3d4555" stroke="#3d4555"></path><path d="M70 331L200 393L182 289Z" fill="#464f62" stroke="#464f62"></path><path d="M189 496L228 600L283 479Z" fill="#2e3440" stroke="#2e3440"></path><path d="M107 600L228 600L189 496Z" fill="#3d4555" stroke="#3d4555"></path><path d="M395 0L320 119L403 85Z" fill="#373e4c" stroke="#373e4c"></path><path d="M277 0L209 107L320 119Z" fill="#464f62" stroke="#464f62"></path><path d="M590 600L662 600L563 517Z" fill="#4c566a" stroke="#4c566a"></path><path d="M833 510L802 375L734 433Z" fill="#404859" stroke="#404859"></path><path d="M694 333L725 161L629 297Z" fill="#343b48" stroke="#343b48"></path><path d="M813 298L725 161L694 333Z" fill="#2e3440" stroke="#2e3440"></path><path d="M577 74L470 0L461 73Z" fill="#2e3440" stroke="#2e3440"></path><path d="M461 73L395 0L403 85Z" fill="#495366" stroke="#495366"></path><path d="M591 0L470 0L577 74Z" fill="#4c566a" stroke="#4c566a"></path><path d="M470 0L395 0L461 73Z" fill="#3a4251" stroke="#3a4251"></path><path d="M0 421L89 462L122 424Z" fill="#3d4555" stroke="#3d4555"></path><path d="M122 424L89 462L189 496Z" fill="#3a4251" stroke="#3a4251"></path><path d="M71 204L182 289L178 174Z" fill="#464f62" stroke="#464f62"></path><path d="M71 204L70 331L182 289Z" fill="#3a4251" stroke="#3a4251"></path><path d="M833 510L734 433L695 508Z" fill="#2e3440" stroke="#2e3440"></path><path d="M734 433L802 375L694 333Z" fill="#373e4c" stroke="#373e4c"></path><path d="M725 161L692 81L563 192Z" fill="#434c5d" stroke="#434c5d"></path><path d="M692 81L591 0L577 74Z" fill="#464f62" stroke="#464f62"></path><path d="M802 375L813 298L694 333Z" fill="#3a4251" stroke="#3a4251"></path><path d="M725 161L781 120L692 81Z" fill="#434c5d" stroke="#434c5d"></path><path d="M395 0L277 0L320 119Z" fill="#404859" stroke="#404859"></path><path d="M122 62L71 204L178 174Z" fill="#434c5d" stroke="#434c5d"></path><path d="M122 62L178 174L209 107Z" fill="#495366" stroke="#495366"></path><path d="M830 220L781 120L725 161Z" fill="#464f62" stroke="#464f62"></path><path d="M692 81L734 0L591 0Z" fill="#3a4251" stroke="#3a4251"></path><path d="M813 298L830 220L725 161Z" fill="#495366" stroke="#495366"></path><path d="M900 316L830 220L813 298Z" fill="#2e3440" stroke="#2e3440"></path><path d="M0 519L107 600L89 462Z" fill="#434c5d" stroke="#434c5d"></path><path d="M89 462L107 600L189 496Z" fill="#2e3440" stroke="#2e3440"></path><path d="M172 0L122 62L209 107Z" fill="#2e3440" stroke="#2e3440"></path><path d="M662 600L776 600L695 508Z" fill="#313744" stroke="#313744"></path><path d="M802 375L900 316L813 298Z" fill="#464f62" stroke="#464f62"></path><path d="M776 600L833 510L695 508Z" fill="#4c566a" stroke="#4c566a"></path><path d="M277 0L172 0L209 107Z" fill="#373e4c" stroke="#373e4c"></path><path d="M71 204L0 304L70 331Z" fill="#313744" stroke="#313744"></path><path d="M70 331L0 421L122 424Z" fill="#373e4c" stroke="#373e4c"></path><path d="M0 172L0 304L71 204Z" fill="#434c5d" stroke="#434c5d"></path><path d="M0 304L0 421L70 331Z" fill="#434c5d" stroke="#434c5d"></path><path d="M785 0L734 0L781 120Z" fill="#434c5d" stroke="#434c5d"></path><path d="M781 120L734 0L692 81Z" fill="#4c566a" stroke="#4c566a"></path><path d="M900 401L900 316L802 375Z" fill="#3d4555" stroke="#3d4555"></path><path d="M900 69L785 0L781 120Z" fill="#4c566a" stroke="#4c566a"></path><path d="M172 0L123 0L122 62Z" fill="#495366" stroke="#495366"></path><path d="M0 107L0 172L71 204Z" fill="#373e4c" stroke="#373e4c"></path><path d="M833 510L900 401L802 375Z" fill="#313744" stroke="#313744"></path><path d="M0 421L0 519L89 462Z" fill="#464f62" stroke="#464f62"></path><path d="M0 107L71 204L122 62Z" fill="#434c5d" stroke="#434c5d"></path><path d="M900 600L900 479L833 510Z" fill="#404859" stroke="#404859"></path><path d="M833 510L900 479L900 401Z" fill="#3a4251" stroke="#3a4251"></path><path d="M900 171L781 120L830 220Z" fill="#4c566a" stroke="#4c566a"></path><path d="M900 316L900 171L830 220Z" fill="#404859" stroke="#404859"></path><path d="M0 0L0 107L122 62Z" fill="#434c5d" stroke="#434c5d"></path><path d="M0 519L0 600L107 600Z" fill="#3d4555" stroke="#3d4555"></path><path d="M776 600L900 600L833 510Z" fill="#4c566a" stroke="#4c566a"></path><path d="M900 171L900 69L781 120Z" fill="#434c5d" stroke="#434c5d"></path><path d="M123 0L0 0L122 62Z" fill="#4c566a" stroke="#4c566a"></path><path d="M900 69L900 0L785 0Z" fill="#3d4555" stroke="#3d4555"></path></g></svg>